<svg viewBox="0 0 18 18" fill="none" xmlns="http://www.w3.org/2000/svg">
<g clip-path="url(#clip0_4592_1230)">
<path fill-rule="evenodd" clip-rule="evenodd" d="M4.22706 1.89322C5.49294 0.681016 7.20985 0 9.00007 0C10.7903 0 12.5072 0.681016 13.7731 1.89322C15.039 3.10542 15.7501 4.74953 15.7501 6.46384V11.4913C15.7501 11.8722 15.9082 12.2376 16.1895 12.507C16.4707 12.7763 16.8523 12.9277 17.2501 12.9277C17.6643 12.9277 18.0001 13.2493 18.0001 13.6459C18.0001 14.0425 17.6643 14.3641 17.2501 14.3641H0.750006C0.335793 14.3641 0 14.0425 0 13.6459C0 13.2493 0.335793 12.9277 0.750006 12.9277C1.14784 12.9277 1.52937 12.7763 1.81068 12.507C2.09198 12.2376 2.25002 11.8722 2.25002 11.4913V6.46384C2.25002 4.74953 2.96119 3.10542 4.22706 1.89322ZM6.37505 16.9227C6.37505 16.3277 6.87874 15.8454 7.50006 15.8454H10.5001C11.1214 15.8454 11.6251 16.3277 11.6251 16.9227C11.6251 17.5177 11.1214 18 10.5001 18H7.50006C6.87874 18 6.37505 17.5177 6.37505 16.9227Z" fill="#757D91"/>
</g>
<defs>
<clipPath id="clip0_4592_1230">
<rect width="18" height="18" fill="white"/>
</clipPath>
</defs>
</svg>