<svg viewBox="0 0 18 18" fill="none" xmlns="http://www.w3.org/2000/svg">
<path d="M16.9407 16.9412L15.4584 15.4589M9.15836 16.2C10.083 16.2 10.9986 16.0179 11.8529 15.6641C12.7072 15.3102 13.4834 14.7915 14.1372 14.1377C14.7911 13.4839 15.3097 12.7077 15.6636 11.8534C16.0174 10.9991 16.1995 10.0835 16.1995 9.15885C16.1995 8.23419 16.0174 7.31859 15.6636 6.46431C15.3097 5.61004 14.7911 4.83382 14.1372 4.17999C13.4834 3.52615 12.7072 3.00751 11.8529 2.65365C10.9986 2.2998 10.083 2.11768 9.15836 2.11768C7.29093 2.11768 5.49998 2.85951 4.1795 4.17999C2.85902 5.50047 2.11719 7.29142 2.11719 9.15885C2.11719 11.0263 2.85902 12.8172 4.1795 14.1377C5.49998 15.4582 7.29093 16.2 9.15836 16.2Z" stroke="#757D91" stroke-width="1.5" stroke-linecap="round" stroke-linejoin="round"/>
</svg>