<svg width="96" height="26" viewBox="0 0 96 26" fill="none" xmlns="http://www.w3.org/2000/svg">
<path d="M22.3062 0.524014C22.8052 0.182651 23.3956 0 24.0002 0H29.3198C30.0779 0 30.5603 0.810723 30.1987 1.47705L24.84 11.3496C24.3555 12.2421 24.3555 13.3193 24.84 14.2118L30.1987 24.0844C30.5603 24.7507 30.0779 25.5614 29.3198 25.5614H24.095C23.4318 25.5614 22.7874 25.3417 22.2623 24.9366L10.604 15.9413C10.0176 15.4889 9.61931 14.8355 9.48579 14.107L9.05342 11.7479C8.83979 10.5823 9.33229 9.40019 10.3103 8.73108L22.3062 0.524014Z" fill="#0068FF"/>
<path d="M4.15398 2.46887C4.41104 1.03983 5.65461 0 7.10659 0H13.8597C14.9492 0 15.8382 0.872032 15.8593 1.96132L16.2764 23.5227C16.298 24.6422 15.3964 25.5614 14.2767 25.5614H3.5878C1.71837 25.5614 0.304225 23.8702 0.635193 22.0303L4.15398 2.46887Z" fill="#69F469"/>
<path d="M11.6725 8.37455C11.9936 8.08231 12.509 8.31015 12.509 8.74434V15.6698C12.509 16.1127 11.9757 16.3369 11.6592 16.0271L9.12852 13.5499C8.30674 12.7455 8.33094 11.4154 9.18144 10.6415L11.6725 8.37455Z" fill="#0068FF"/>
<path d="M38.88 19V7.992H42.592V12.376H43.728L45.872 7.992H49.872L46.96 13.448L50.272 19H46.048L43.68 14.76H42.592V19H38.88ZM50.755 19V7.992H54.467V12.376H55.603L57.747 7.992H61.747L58.835 13.448L62.147 19H57.923L55.555 14.76H54.467V19H50.755ZM67.3424 19V10.52H64.8624V7.992H73.5504V10.52H71.0704V19H67.3424ZM78.526 16.888C78.8353 16.888 79.1607 16.856 79.502 16.792C79.854 16.728 80.2113 16.6107 80.574 16.44L80.958 18.504C80.5633 18.7067 80.1313 18.8613 79.662 18.968C79.2033 19.0747 78.6753 19.128 78.078 19.128C77.0007 19.128 76.094 18.952 75.358 18.6C74.6327 18.248 74.0833 17.7627 73.71 17.144C73.3367 16.5253 73.15 15.8107 73.15 15C73.15 14.168 73.3473 13.4427 73.742 12.824C74.1473 12.2053 74.686 11.7253 75.358 11.384C76.03 11.0427 76.7713 10.872 77.582 10.872C78.7873 10.872 79.71 11.2507 80.35 12.008C80.99 12.7547 81.31 13.8213 81.31 15.208L76.542 15.816C76.894 16.5307 77.5553 16.888 78.526 16.888ZM76.286 14.344L78.798 13.816C78.7553 13.4747 78.638 13.224 78.446 13.064C78.254 12.8933 78.014 12.808 77.726 12.808C77.2993 12.808 76.958 12.9573 76.702 13.256C76.4567 13.544 76.318 13.9067 76.286 14.344ZM85.001 19.128C84.521 19.128 84.0357 19.08 83.545 18.984C83.0543 18.888 82.6117 18.7547 82.217 18.584L82.681 16.568C82.9263 16.696 83.2623 16.808 83.689 16.904C84.1157 16.9893 84.4943 17.032 84.825 17.032C85.3583 17.032 85.625 16.888 85.625 16.6C85.625 16.4613 85.5397 16.36 85.369 16.296C85.209 16.232 84.9957 16.1787 84.729 16.136C84.473 16.0827 84.1957 16.0187 83.897 15.944C83.5983 15.8587 83.3157 15.736 83.049 15.576C82.793 15.4053 82.5797 15.1653 82.409 14.856C82.249 14.5467 82.169 14.1413 82.169 13.64C82.169 12.7973 82.4997 12.1253 83.161 11.624C83.833 11.1227 84.7503 10.872 85.913 10.872C86.361 10.872 86.777 10.904 87.161 10.968C87.5557 11.032 87.929 11.1653 88.281 11.368L87.945 13.32C87.3797 13.0853 86.7877 12.968 86.169 12.968C85.7743 12.968 85.4863 13 85.305 13.064C85.1343 13.128 85.049 13.2347 85.049 13.384C85.049 13.5013 85.1343 13.592 85.305 13.656C85.4757 13.72 85.6943 13.784 85.961 13.848C86.2383 13.9013 86.5263 13.9813 86.825 14.088C87.1237 14.184 87.4063 14.3227 87.673 14.504C87.9503 14.6853 88.1743 14.9307 88.345 15.24C88.5157 15.5387 88.601 15.928 88.601 16.408C88.601 17.2613 88.2863 17.928 87.657 18.408C87.0277 18.888 86.1423 19.128 85.001 19.128ZM93.1459 19.128C92.3885 19.128 91.7699 19 91.2899 18.744C90.8205 18.488 90.4792 18.1413 90.2659 17.704C90.0525 17.2667 89.9459 16.776 89.9459 16.232V12.968H88.9219V10.984H90.1859L91.6739 8.456H93.3219V10.984H95.1779V12.968H93.3219V15.768C93.3219 16.0133 93.4019 16.2053 93.5619 16.344C93.7219 16.472 93.9299 16.536 94.1859 16.536C94.4419 16.536 94.6979 16.472 94.9539 16.344L95.1939 18.568C94.9379 18.7493 94.6125 18.888 94.2179 18.984C93.8232 19.08 93.4659 19.128 93.1459 19.128Z" fill="white"/>
</svg>
