<svg width="18" height="18" viewBox="0 0 18 18" fill="none" xmlns="http://www.w3.org/2000/svg">
<g clip-path="url(#clip0_4624_5247)">
<path fill-rule="evenodd" clip-rule="evenodd" d="M0.625 2.41964C0.625 1.43498 1.43857 0.625 2.41964 0.625H15.5804C16.5614 0.625 17.375 1.43618 17.375 2.41964V5.83305C17.375 10.7815 14.372 15.4117 9.7047 17.2326C9.4782 17.3251 9.23625 17.3738 8.99162 17.3762C8.75267 17.3715 8.51661 17.3229 8.2953 17.2326C3.62804 15.4117 0.625 10.7815 0.625 5.83305V2.41964ZM13.2593 6.0185C13.3431 5.93147 13.4085 5.8284 13.4516 5.71547C13.4946 5.60254 13.5144 5.48208 13.5097 5.36131C13.5051 5.24055 13.4761 5.12197 13.4245 5.0127C13.3728 4.90342 13.2997 4.80569 13.2094 4.72538C13.1191 4.64507 13.0135 4.58383 12.8989 4.54534C12.7844 4.50684 12.6632 4.49188 12.5427 4.50136C12.4222 4.51084 12.3049 4.54455 12.1978 4.60048C12.0907 4.65642 11.9959 4.73342 11.9193 4.82686L7.68154 9.59343L5.94911 8.29411C5.85484 8.2234 5.74756 8.17196 5.63341 8.14272C5.51926 8.11347 5.40047 8.107 5.28381 8.12366C5.04822 8.15732 4.83565 8.28318 4.69286 8.47357C4.55007 8.66396 4.48876 8.90327 4.52241 9.13886C4.55607 9.37446 4.68193 9.58703 4.87232 9.72982L7.26518 11.5245C7.44524 11.6593 7.66936 11.7216 7.89316 11.699C8.11696 11.6764 8.32411 11.5705 8.47357 11.4024L13.2593 6.0185Z" fill="white"/>
</g>
<defs>
<clipPath id="clip0_4624_5247">
<rect width="18" height="18" fill="white"/>
</clipPath>
</defs>
</svg>
