<svg width="18" height="18" viewBox="0 0 18 18" fill="none" xmlns="http://www.w3.org/2000/svg">
<g clip-path="url(#clip0_4624_5252)">
<path fill-rule="evenodd" clip-rule="evenodd" d="M7.14482 0.887143L6.54953 2.42357L4.50011 3.58586L2.86725 3.33643C2.59494 3.29926 2.31772 3.34397 2.0709 3.46486C1.82408 3.58575 1.61882 3.77736 1.48125 4.01529L0.928392 4.98471C0.786435 5.22612 0.721009 5.50489 0.74075 5.78424C0.76049 6.06359 0.864469 6.33039 1.03896 6.54943L2.07653 7.83643V10.1636L1.06725 11.4506C0.892755 11.6696 0.788776 11.9364 0.769036 12.2158C0.749295 12.4951 0.81472 12.7739 0.956677 13.0153L1.50953 13.9847C1.64711 14.2226 1.85237 14.4142 2.09919 14.5351C2.34601 14.656 2.62322 14.7007 2.89553 14.6636L4.52839 14.4141L6.55082 15.5764L7.14611 17.1141C7.2463 17.3741 7.42264 17.5977 7.65205 17.7558C7.88145 17.9138 8.15324 17.999 8.43182 18H9.59539C9.87457 17.9994 10.147 17.9143 10.377 17.756C10.6069 17.5976 10.7835 17.3734 10.8837 17.1129L11.479 15.5764L13.5001 14.4141L15.133 14.6636C15.4053 14.7007 15.6825 14.656 15.9293 14.5351C16.1761 14.4142 16.3814 14.2226 16.519 13.9847L17.0718 13.0153C17.2138 12.7739 17.2792 12.4951 17.2595 12.2158C17.2397 11.9364 17.1357 11.6696 16.9612 11.4506L15.9237 10.1636V7.83643L16.9342 6.54943C17.1087 6.33039 17.2127 6.06359 17.2325 5.78424C17.2522 5.50489 17.1868 5.22612 17.0448 4.98471L16.492 4.01529C16.3545 3.77724 16.1493 3.58554 15.9024 3.46463C15.6556 3.34372 15.3783 3.29909 15.106 3.33643L13.4731 3.58586L11.4507 2.42357L10.8554 0.885857C10.755 0.625811 10.5784 0.40213 10.3488 0.244076C10.1191 0.0860216 9.84715 0.000953537 9.56839 0L8.43182 0C8.15291 0.00105405 7.88081 0.086311 7.65117 0.244606C7.42153 0.402902 7.24504 0.626856 7.14482 0.887143ZM9.00011 11.8929C9.76734 11.8929 10.5031 11.5881 11.0457 11.0456C11.5882 10.503 11.893 9.76723 11.893 9C11.893 8.23277 11.5882 7.49696 11.0457 6.95444C10.5031 6.41193 9.76734 6.10714 9.00011 6.10714C8.23287 6.10714 7.49706 6.41193 6.95455 6.95444C6.41203 7.49696 6.10725 8.23277 6.10725 9C6.10725 9.76723 6.41203 10.503 6.95455 11.0456C7.49706 11.5881 8.23287 11.8929 9.00011 11.8929Z" fill="white"/>
</g>
<defs>
<clipPath id="clip0_4624_5252">
<rect width="18" height="18" fill="white"/>
</clipPath>
</defs>
</svg>
