<svg viewBox="0 0 20 21" fill="none" xmlns="http://www.w3.org/2000/svg">
<rect x="0.015625" width="19.9845" height="3" rx="1.5" fill="white"/>
<rect y="8.50073" width="10.9692" height="3" rx="1.5" fill="white"/>
<path d="M0 18.5576C0 17.7292 0.671573 17.0576 1.5 17.0576H18.5C19.3284 17.0576 20 17.7292 20 18.5576C20 19.386 19.3284 20.0576 18.5 20.0576H1.5C0.671573 20.0576 0 19.386 0 18.5576Z" fill="white"/>
<path d="M13.8282 9.18942C13.2747 9.58854 13.2747 10.4125 13.8282 10.8116L18.4149 14.1194C19.0763 14.5964 19.9998 14.1238 19.9998 13.3083V6.69269C19.9998 5.87724 19.0763 5.40462 18.4149 5.88161L13.8282 9.18942Z" fill="white"/>
</svg>