<svg viewBox="0 0 18 18" fill="none" xmlns="http://www.w3.org/2000/svg">
<path fill-rule="evenodd" clip-rule="evenodd" d="M11.5713 0C9.18434 0 6.89516 0.948212 5.20733 2.63604C3.5195 4.32387 2.57129 6.61305 2.57129 9C2.57129 11.3869 3.5195 13.6761 5.20733 15.364C6.89516 17.0518 9.18434 18 11.5713 18H11.5764C12.7491 17.9917 13.9091 17.7568 14.9926 17.3083C15.1033 17.2625 15.199 17.1868 15.269 17.0895C15.3389 16.9923 15.3803 16.8774 15.3885 16.7579C15.3966 16.6384 15.3712 16.519 15.3151 16.4131C15.259 16.3073 15.1745 16.2192 15.071 16.1589C13.8187 15.4276 12.7783 14.383 12.052 13.1278C11.3257 11.8727 10.9385 10.4501 10.9284 9C10.9348 7.55336 11.3165 6.13314 12.0364 4.87828C12.7562 3.62343 13.7894 2.57692 15.035 1.84114C15.138 1.78045 15.2221 1.69223 15.2778 1.58639C15.3334 1.48054 15.3584 1.36127 15.35 1.24199C15.3416 1.12271 15.3001 1.00814 15.2301 0.911153C15.1602 0.814171 15.0645 0.738622 14.954 0.693C13.8834 0.24926 12.7379 0.0140474 11.579 0L11.5713 0Z" fill="#757D91"/>
</svg>