<svg viewBox="0 0 18 18" fill="none" xmlns="http://www.w3.org/2000/svg">
<path fill-rule="evenodd" clip-rule="evenodd" d="M1.99989 1.92857C1.96933 1.9284 1.93905 1.93483 1.91078 1.94748C1.88251 1.96013 1.85681 1.97876 1.83515 2.0023C1.8135 2.02584 1.79631 2.05382 1.78458 2.08463C1.77286 2.11545 1.76682 2.14849 1.76682 2.18186V13.1374H12.2653V10.0967C12.2653 9.97008 12.2882 9.84469 12.3325 9.7277C12.3769 9.61071 12.4419 9.5044 12.5239 9.41486C12.6059 9.32532 12.7032 9.25429 12.8103 9.20583C12.9174 9.15737 13.0322 9.13243 13.1482 9.13243C13.2641 9.13243 13.3789 9.15737 13.486 9.20583C13.5931 9.25429 13.6904 9.32532 13.7724 9.41486C13.8544 9.5044 13.9194 9.61071 13.9638 9.7277C14.0081 9.84469 14.031 9.97008 14.031 10.0967V15.5764C14.031 16.7811 13.1364 17.7583 12.0334 17.7583H1.99753C0.894593 17.7583 0 16.7811 0 15.5764V2.18186C0.00062389 1.60296 0.211601 1.048 0.586585 0.638895C0.961568 0.229791 1.46989 -4.01095e-07 1.99989 0H9.24609C9.48023 0 9.70477 0.101594 9.87034 0.282433C10.0359 0.463271 10.1289 0.708541 10.1289 0.964286C10.1289 1.22003 10.0359 1.4653 9.87034 1.64614C9.70477 1.82698 9.48023 1.92857 9.24609 1.92857H1.99989ZM4.2293 3.74529C4.03419 3.74529 3.84706 3.82995 3.7091 3.98065C3.57113 4.13135 3.49362 4.33574 3.49362 4.54886C3.49362 4.76198 3.57113 4.96637 3.7091 5.11707C3.84706 5.26777 4.03419 5.35243 4.2293 5.35243H6.45872C6.65384 5.35243 6.84096 5.26777 6.97893 5.11707C7.1169 4.96637 7.19441 4.76198 7.19441 4.54886C7.19441 4.33574 7.1169 4.13135 6.97893 3.98065C6.84096 3.82995 6.65384 3.74529 6.45872 3.74529H4.2293ZM3.49362 8.23629C3.49362 7.79271 3.82321 7.43271 4.2293 7.43271H5.34401C5.53913 7.43271 5.72625 7.51738 5.86422 7.66808C6.00219 7.81877 6.0797 8.02316 6.0797 8.23629C6.0797 8.44941 6.00219 8.6538 5.86422 8.8045C5.72625 8.9552 5.53913 9.03986 5.34401 9.03986H4.2293C4.03419 9.03986 3.84706 8.9552 3.7091 8.8045C3.57113 8.6538 3.49362 8.44941 3.49362 8.23629ZM10.947 9.56571C11.0658 9.54221 11.1751 9.47937 11.2601 9.38571L16.085 4.09114C16.1953 3.97162 16.2829 3.82942 16.3427 3.67274C16.4024 3.51607 16.4332 3.34802 16.4332 3.17829C16.4332 3.00856 16.4024 2.84051 16.3427 2.68383C16.2829 2.52715 16.1953 2.38495 16.085 2.26543L14.8373 0.902571C14.7279 0.782063 14.5977 0.686414 14.4542 0.62114C14.3108 0.555866 14.1569 0.522259 14.0016 0.522259C13.8462 0.522259 13.6923 0.555866 13.5489 0.62114C13.4054 0.686414 13.2752 0.782063 13.1658 0.902571L8.32089 6.16886C8.23364 6.2641 8.17599 6.38689 8.1561 6.51986L7.73234 9.32528C7.71704 9.42694 7.72434 9.53113 7.75361 9.62907C7.78288 9.72701 7.83328 9.81582 7.90055 9.88804C7.96781 9.96025 8.04999 10.0138 8.14014 10.044C8.2303 10.0743 8.3258 10.0805 8.41859 10.062L10.947 9.56571Z" fill="white"/>
</svg>