<svg viewBox="0 0 18 18" fill="none" xmlns="http://www.w3.org/2000/svg">
<path fill-rule="evenodd" clip-rule="evenodd" d="M9 1.8125C12.9698 1.8125 16.1875 5.03017 16.1875 9C16.1875 12.9698 12.9698 16.1875 9 16.1875C5.03017 16.1875 1.8125 12.9698 1.8125 9C1.8125 5.03017 5.03017 1.8125 9 1.8125Z" stroke="white" stroke-width="1.5" stroke-linecap="round" stroke-linejoin="round"/>
<path fill-rule="evenodd" clip-rule="evenodd" d="M9.00004 1.8125C10.489 1.8125 11.6953 5.03017 11.6953 9C11.6953 12.9698 10.489 16.1875 9.00004 16.1875C7.51107 16.1875 6.30469 12.9698 6.30469 9C6.30469 5.03017 7.51107 1.8125 9.00004 1.8125Z" stroke="white" stroke-width="1.5" stroke-linecap="round" stroke-linejoin="round"/>
<path fill-rule="evenodd" clip-rule="evenodd" d="M16.1875 9.00002C16.1875 10.489 12.9698 11.6953 9 11.6953C5.03017 11.6953 1.8125 10.489 1.8125 9.00002C1.8125 7.51105 5.03017 6.30469 9 6.30469C12.9698 6.30469 16.1875 7.51105 16.1875 9.00002Z" stroke="white" stroke-width="1.5" stroke-linecap="round" stroke-linejoin="round"/>
</svg>