<svg viewBox="0 0 18 18" fill="none" xmlns="http://www.w3.org/2000/svg">
  <g clip-path="url(#clip0_4592_2189)">
  <path fill-rule="evenodd" clip-rule="evenodd" d="M9.2305 0.539355C9.75537 0.709264 10.0334 1.24447 9.85152 1.73477C9.46511 2.77643 9.5154 3.90409 9.99536 4.91784C10.22 5.39241 9.99036 5.94726 9.48234 6.15715C8.97434 6.36705 8.38036 6.15249 8.15568 5.67792C7.47063 4.23099 7.39719 2.61192 7.95083 1.11948C8.13272 0.629178 8.70566 0.369447 9.2305 0.539355ZM6.07566 3.89891C6.15216 3.38496 5.76815 2.91038 5.21795 2.83892C4.66776 2.76748 4.15974 3.12619 4.08325 3.64016C3.95485 4.50283 4.16846 5.37959 4.68385 6.1054C4.9909 6.53782 5.61508 6.65583 6.07797 6.369C6.54087 6.08216 6.66722 5.49908 6.36016 5.06667C6.11603 4.72286 6.01485 4.30755 6.07566 3.89891ZM13.1886 5.59967C12.8221 5.51157 12.4377 5.51136 12.0711 5.59903C11.7044 5.68671 11.3674 5.85944 11.0913 6.10119L11.0757 6.1153L5.83043 11.0152L5.82381 11.0215C5.5624 11.2726 5.37284 11.5812 5.27257 11.9188C5.17231 12.2563 5.16457 12.6121 5.25006 12.9532C5.33556 13.2942 5.51154 13.6097 5.7618 13.8707C6.01066 14.13 6.325 14.3272 6.67618 14.4441L15.0336 17.3542L15.0438 17.3577C15.4295 17.4854 15.8456 17.5099 16.2454 17.4286C16.6452 17.3473 17.0127 17.1634 17.3067 16.8976C17.6007 16.6317 17.8093 16.2945 17.9092 15.9239C18.0091 15.5533 17.9963 15.164 17.8722 14.7997C17.869 14.7903 17.8655 14.7811 17.8619 14.7718L14.7617 6.97107C14.6439 6.64018 14.4398 6.3418 14.1677 6.10295C13.8919 5.86087 13.5551 5.68776 13.1886 5.59967ZM4.40767 10.1962C3.98477 10.1065 3.54129 10.166 3.16259 10.3635C2.67752 10.6163 2.06485 10.454 1.79418 10.0008C1.52349 9.54773 1.69727 8.97541 2.18233 8.72254C2.99466 8.29907 3.94596 8.17125 4.85312 8.36367C5.39481 8.47859 5.73422 8.98195 5.61122 9.48797C5.48821 9.994 4.94938 10.3111 4.40767 10.1962ZM1.43774 4.67149C0.697089 4.67149 0.0966797 5.23236 0.0966797 5.92424C0.0966797 6.61611 0.697089 7.17699 1.43774 7.17699C2.17838 7.17699 2.77879 6.61611 2.77879 5.92424C2.77879 5.23236 2.17838 4.67149 1.43774 4.67149Z" fill="white"/>
  </g>
  <defs>
  <clipPath id="clip0_4592_2189">
  <rect width="18" height="18" fill="white"/>
  </clipPath>
  </defs>
</svg>