<svg viewBox="0 0 18 18" fill="none" xmlns="http://www.w3.org/2000/svg">
  <path
    d="M17.5783 3.27272V14.7273C17.5783 15.1773 17.4182 15.5626 17.098 15.8834C16.7778 16.2041 16.3924 16.3642 15.9419 16.3636H13.4873C13.2555 16.3636 13.0613 16.2851 12.9048 16.128C12.7483 15.9709 12.6697 15.7767 12.6692 15.5455V8.20226C12.6692 7.92954 12.6111 7.67727 12.4949 7.44545C12.3787 7.21363 12.2118 7.02272 11.9942 6.87272L7.71916 3.80454C7.54189 3.66817 7.3987 3.50454 7.28961 3.31363C7.18052 3.12272 7.12598 2.93181 7.12598 2.7409C7.12598 2.39999 7.23507 2.13081 7.45325 1.93335C7.67143 1.7359 7.96461 1.6369 8.33279 1.63635H15.9419C16.3919 1.63635 16.7773 1.79672 17.098 2.11744C17.4187 2.43817 17.5788 2.82326 17.5783 3.27272ZM13.0783 6.54545H13.8964C14.0055 6.54545 14.101 6.50454 14.1828 6.42272C14.2646 6.3409 14.3055 6.24545 14.3055 6.13635V5.31817C14.3055 5.20908 14.2646 5.11363 14.1828 5.03181C14.101 4.94999 14.0055 4.90908 13.8964 4.90908H13.0783C12.9692 4.90908 12.8737 4.94999 12.7919 5.03181C12.7101 5.11363 12.6692 5.20908 12.6692 5.31817V6.13635C12.6692 6.24545 12.7101 6.3409 12.7919 6.42272C12.8737 6.50454 12.9692 6.54545 13.0783 6.54545ZM13.0783 9.81818H13.8964C14.0055 9.81818 14.101 9.77727 14.1828 9.69545C14.2646 9.61363 14.3055 9.51818 14.3055 9.40908V8.5909C14.3055 8.48181 14.2646 8.38636 14.1828 8.30454C14.101 8.22272 14.0055 8.18181 13.8964 8.18181H13.0783C12.9692 8.18181 12.8737 8.22272 12.7919 8.30454C12.7101 8.38636 12.6692 8.48181 12.6692 8.5909V9.40908C12.6692 9.51818 12.7101 9.61363 12.7919 9.69545C12.8737 9.77727 12.9692 9.81818 13.0783 9.81818ZM13.0783 13.0909H13.8964C14.0055 13.0909 14.101 13.05 14.1828 12.9682C14.2646 12.8864 14.3055 12.7909 14.3055 12.6818V11.8636C14.3055 11.7545 14.2646 11.6591 14.1828 11.5773C14.101 11.4954 14.0055 11.4545 13.8964 11.4545H13.0783C12.9692 11.4545 12.8737 11.4954 12.7919 11.5773C12.7101 11.6591 12.6692 11.7545 12.6692 11.8636V12.6818C12.6692 12.7909 12.7101 12.8864 12.7919 12.9682C12.8737 13.05 12.9692 13.0909 13.0783 13.0909Z"
    fill="#69F469" />
  <path
    d="M0.605966 8.01366C0.483239 8.24548 0.421875 8.49775 0.421875 8.77048V14.4773C0.42242 14.9278 0.582784 15.3132 0.902966 15.6334C1.22315 15.9536 1.60824 16.1137 2.05824 16.1137H2.87642C3.32697 16.1142 3.71233 15.9541 4.03251 15.6334C4.3527 15.3127 4.51279 14.9273 4.51279 14.4773V12.4318C4.51333 12.0915 4.63279 11.8018 4.87115 11.5629C5.10951 11.324 5.39915 11.2046 5.74006 11.2046H6.55824C6.8997 11.2051 7.18961 11.3246 7.42797 11.5629C7.66633 11.8013 7.78551 12.0909 7.78551 12.4318V14.4773C7.78606 14.9278 7.94642 15.3132 8.26661 15.6334C8.58679 15.9536 8.97188 16.1137 9.42188 16.1137H10.2401C10.6906 16.1142 11.076 15.9541 11.3962 15.6334C11.7163 15.3127 11.8764 14.9273 11.8764 14.4773V8.77048C11.8764 8.49775 11.8151 8.24548 11.6923 8.01366C11.5696 7.78184 11.3992 7.59093 11.181 7.44093L7.09006 4.51593C6.94115 4.40684 6.78788 4.32857 6.63024 4.28112C6.47261 4.23366 6.31224 4.20966 6.14915 4.20912C5.98606 4.20857 5.82597 4.2323 5.66888 4.2803C5.51179 4.3283 5.35824 4.40684 5.20824 4.51593L1.11733 7.44093C0.899148 7.59093 0.728693 7.78184 0.605966 8.01366Z"
    fill="white" />
</svg>