<svg width="32" height="32" viewBox="0 0 32 32" fill="none" xmlns="http://www.w3.org/2000/svg">
<path d="M22.3062 3.52401C22.8052 3.18265 23.3956 3 24.0002 3H29.3198C30.0779 3 30.5603 3.81072 30.1987 4.47705L24.84 14.3496C24.3555 15.2421 24.3555 16.3193 24.84 17.2118L30.1987 27.0844C30.5603 27.7507 30.0779 28.5614 29.3198 28.5614H24.095C23.4318 28.5614 22.7874 28.3417 22.2623 27.9366L10.604 18.9413C10.0176 18.4889 9.61931 17.8355 9.48579 17.107L9.05342 14.7479C8.83979 13.5823 9.33229 12.4002 10.3103 11.7311L22.3062 3.52401Z" fill="#0068FF"/>
<path d="M4.15398 5.46887C4.41104 4.03983 5.65461 3 7.10659 3H13.8597C14.9492 3 15.8382 3.87203 15.8593 4.96132L16.2764 26.5227C16.298 27.6422 15.3964 28.5614 14.2767 28.5614H3.5878C1.71837 28.5614 0.304225 26.8702 0.635193 25.0303L4.15398 5.46887Z" fill="#69F469"/>
<path d="M11.6725 11.3745C11.9936 11.0823 12.509 11.3102 12.509 11.7443V18.6698C12.509 19.1127 11.9757 19.3369 11.6592 19.0271L9.12852 16.5499C8.30674 15.7455 8.33094 14.4154 9.18144 13.6415L11.6725 11.3745Z" fill="#0068FF"/>
</svg>
